<svg width="968" height="1080" viewBox="0 0 968 1080" fill="none" xmlns="http://www.w3.org/2000/svg">
<g opacity="0.3">
<path d="M17.9697 75.1694C27.1533 75.1694 36.3369 75.1694 45.5204 75.1694C62.506 75.1694 79.0323 78.7107 95.8792 79.649C103.931 80.0974 114.933 82.7664 121.576 88.0174C128.487 93.4804 131.671 101.315 137.442 107.905C141.745 112.817 144.284 119.06 148.178 124.395C152.434 130.226 155.91 136.682 160.164 142.51C173.18 160.343 192.265 173.341 212.592 176.378C220.848 177.611 228.809 179.726 237.168 180.414C243.23 180.913 249.374 180.611 255.449 180.611C265.17 180.611 274.85 179.725 284.595 179.725C290.29 179.725 295.695 178.124 301.238 177.953C305.329 177.827 309.82 178.818 313.655 177.067" stroke="white" stroke-width="8" stroke-linecap="round"/>
<path d="M256.225 131.878C261.181 131.878 266.425 132.387 271.315 131.385C273.385 130.961 278.113 130.053 279.938 128.727C285.251 124.867 290.279 121.675 295.028 117.011C298.753 113.354 300.178 109.037 303.22 104.902C307.004 99.7594 310.844 92.9969 312.059 86.2945C313.435 78.6986 314.619 68.3963 319.001 62.3215C321.42 58.9679 323.117 55.2246 325.899 51.9349C329.085 48.1672 332.268 45.546 336.16 42.7789C348.004 34.3597 359.353 34.1309 372.895 31.7523C391.429 28.4969 411.61 30.8663 430.411 30.8663C440.838 30.8663 453.785 30.7514 461.885 39.7269C472.662 51.6691 472.75 69.1499 472.75 85.1131C472.75 93.0591 472.088 101.438 473.526 109.234C474.836 116.339 474.547 123.676 475.121 130.893C475.549 136.269 477.406 141.477 477.406 146.891C477.406 166.106 472.75 203.285 472.75 222.5" stroke="white" stroke-width="8" stroke-linecap="round"/>
<path d="M413.768 195.674C413.007 193.414 411.592 192.026 410.664 189.964C409.841 188.139 410.136 186.214 409.543 184.352C408.052 179.672 408.335 175.148 408.335 170.175C408.335 159.017 408.335 147.859 408.335 136.702C408.335 123.859 396.973 119.784 387.812 118.39C380.411 117.263 360.235 112.466 356.683 124.051C352.677 137.118 356.538 145.827 359.788 158.016C361.67 165.078 360.995 173.667 360.995 181.005C360.995 185.118 359.411 187.88 356.166 189.964C348.567 194.844 339.454 197.058 331.116 199.612C324.258 201.713 317.341 203.482 310.55 205.421" stroke="white" stroke-width="8" stroke-linecap="round"/>
<path d="M389.71 294.027C382.249 284.526 371.567 278.959 362.547 271.482C354.68 264.96 346.251 260.657 336.936 257.502C316.367 250.534 292.369 248.225 271.229 251.693C261.096 253.355 250.056 256.045 240.746 260.8C231.579 265.482 223.506 275.237 217.076 283.838C213.945 288.025 210.599 293.622 208.625 298.655C207.413 301.744 205.209 306.42 205.004 309.78C204.831 312.597 203.003 313.785 202.072 316.179C200.304 320.72 205.531 321.917 208.065 323.267C220.017 329.636 231.159 336.726 243.764 341.383C258.286 346.747 272.719 356.129 288.302 356.938C291.915 357.125 295.791 359.446 299.081 359.596C303.814 359.812 308.774 354.791 312.145 351.621C315.252 348.7 319.094 347.229 322.191 344.336C325.694 341.064 328.72 337.186 332.237 333.9C338.063 328.457 342.409 320.564 347.802 314.407" stroke="white" stroke-width="8" stroke-linecap="round"/>
<path d="M170.856 229.345C134.522 229.345 98.2952 232.051 62.0765 226.293C48.9201 224.201 35.4526 221.173 23.2295 214.971C18.5553 212.599 14.2159 208.128 9.43262 206.307" stroke="white" stroke-width="8" stroke-linecap="round"/>
<path d="M5.55273 261.243C19.1341 261.243 32.7154 261.243 46.2967 261.243C53.598 261.243 57.4026 265.132 57.5498 274.042C57.7823 288.109 57.4977 302.167 56.7306 316.179C56.4265 321.735 56.2778 328.095 54.8336 333.408C53.0382 340.013 54.164 346.635 53.497 353.394C52.3888 364.623 52.1425 377.111 52.9365 388.443C53.2562 393.006 55.8478 395.691 59.4469 397.205C63.517 398.917 72.2893 400.71 76.3481 399.272C92.895 393.409 102.653 378.335 114.117 364.519C117.669 360.239 118.084 351.896 118.084 346.305" stroke="white" stroke-width="8" stroke-linecap="round"/>
<path d="M165.424 482.759C176.915 485.2 188.625 484.531 200.261 484.531C218.125 484.531 235.989 484.531 253.853 484.531C260.737 484.531 267.622 484.531 274.506 484.531C280.84 484.531 286.779 485.761 293.045 486.254C297.634 486.615 300.357 488.732 304.514 490.044C310.973 492.084 318.272 494.889 324.476 497.871C332.451 501.705 339.187 508.823 343.749 517.119C346.018 521.244 349.115 524.872 351.639 528.834C355.086 534.246 358.668 538.304 362.547 543.208C371.724 554.808 381.477 562.249 393.418 569.79C396.816 571.936 400.724 573.004 404.024 575.402C405.954 576.804 406.834 578.02 409.112 578.454" stroke="white" stroke-width="8" stroke-linecap="round"/>
<path d="M204.228 426.051C211.67 429.776 218.662 430.174 226.734 431.17C240.057 432.815 254.172 432.677 267.564 433.09C282.964 433.565 298.422 433.139 313.827 433.139C325.001 433.139 335.924 431.084 347.069 430.53C356.374 430.069 368.181 431.158 376.43 425.165C380.828 421.97 381.832 417.948 381.949 412.071C382.023 408.338 384.724 405.81 386.605 403.013C390.216 397.647 394.849 393.602 399.023 388.836C403.33 383.918 407.645 379.976 413.768 379.976" stroke="white" stroke-width="8" stroke-linecap="round"/>
<path d="M150.679 385.292C150.679 398.809 149.404 410.425 144.039 422.507C137.033 438.281 128.287 453.959 116.531 465.727C104.952 477.317 92.041 483.467 77.7274 489.651C68.2978 493.724 59.7105 496.314 51.9445 504.025C45.0728 510.847 43.5801 517.472 43.5801 527.062C43.5801 531.788 42.0002 539 43.5801 541.239C45.16 543.479 52.1869 550.207 61.3436 540.353C70.5003 530.5 88.1415 539.78 101.527 538.581C127.847 536.224 156.655 533.494 182.584 540.895C190.475 543.147 201.299 544.552 206.211 552.709C211.679 561.789 215.732 570.866 223.285 578.454C227.01 582.197 230.438 586.505 234.883 589.136C237.685 590.795 239.539 593.63 242.601 594.895C246.615 596.554 250.967 597.408 255.061 598.833C273.665 605.314 294.471 604.587 313.741 604.987C327.042 605.263 340.363 605.036 353.666 605.036C370.647 605.036 387.017 601.887 403.852 600.704C413.019 600.06 422.52 597.947 431.618 597.947" stroke="white" stroke-width="8" stroke-linecap="round"/>
<path d="M20.2979 733.515C49.6168 733.515 68.4146 698.569 68.4146 667.947" stroke="white" stroke-width="8" stroke-linecap="round"/>
<path d="M340.818 649.339C335.273 648.764 329.369 647.219 323.83 646.238C312.937 644.308 301.731 644.023 290.717 644.023C272.221 644.023 253.753 643.253 235.271 643.137C226.145 643.079 218.844 643.632 210.092 646.189C206.261 647.308 201.643 649.161 199.572 653.08C197.5 657 185.579 678.131 177.842 689.015C166.791 704.561 158.533 722.966 143.263 734.008C130.547 743.202 119.707 756.993 103.942 759.408C92.4432 761.169 81.0123 764.379 69.3633 762.066C63.7851 760.959 57.759 759.211 52.1172 759.211" stroke="white" stroke-width="8" stroke-linecap="round"/>
<path d="M4 832.754C11.8068 828.364 18.1327 827.106 26.5924 826.503C34.4662 825.941 44.0172 823.801 51.7287 827.044C56.8252 829.188 62.1745 833.58 66.8622 836.791C77.8549 844.321 90.2773 847.184 102.907 846.932C110.742 846.775 114.641 839.827 120.411 835.068C124.538 831.666 127.683 830.291 132.872 831.032C137.822 831.738 139.41 835.361 143.263 837.874C149.081 841.67 156.318 844.273 163.096 844.273C169.736 844.273 174.699 842.399 179.005 836.348C181.489 832.857 185.543 830.656 188.361 827.438C191.658 823.674 194.975 820.04 198.407 816.412C206.409 807.953 215.166 798.583 226.216 795.934C234.582 793.928 249.122 789.515 257.26 794.457C264.926 799.113 265.565 807.525 270.625 814.689C273.944 819.387 276.785 824.144 280.456 828.521C283.784 832.49 285.879 837.665 289.682 841.172C297.502 848.383 305.051 852.248 315.034 852.248C318.539 852.248 322.102 852.456 325.597 852.199C329.071 851.943 332.012 849.474 335.385 848.704" stroke="white" stroke-width="8" stroke-linecap="round"/>
<path d="M5 942.626C19.4293 942.626 49.1561 942.626 63.5854 942.626C81.0852 942.626 99.4071 943.743 114.979 954.145C135.583 967.91 144.106 992.355 157.663 1013.46C174.655 1039.92 207.931 1040.09 234.15 1040.09C258.582 1040.09 283.014 1040.09 307.446 1040.09" stroke="white" stroke-width="8" stroke-linecap="round"/>
<path d="M251.568 1002.88C259.486 1002.64 268.351 1001.44 275.627 997.366C278.063 996.001 279.856 994.175 281.922 992.246C283.934 990.367 287.106 989.587 288.475 986.93C290.399 983.196 293.578 979.917 295.977 976.297C300.42 969.594 300.224 961.677 302.789 954.146C304.288 949.746 305.012 945.429 307.36 941.445C313.284 931.393 313 931.5 318 926.5C323 921.5 326.005 908.734 352.5 933C378.995 957.266 426.061 947.625 438.5 933" stroke="white" stroke-width="8" stroke-linecap="round"/>
<path d="M310.55 1072.88C316.566 1069.89 324.309 1069.68 330.814 1068.05C336.977 1066.51 342.074 1065.84 348.146 1063.13C353.786 1060.61 361.105 1059.62 365.651 1054.66C368.414 1051.65 373.3 1048.48 373.412 1043.64C373.72 1030.27 365.94 1017.76 360.046 1006.62C358.071 1002.89 354.762 995.904 358.839 992.246C365.495 986.275 373.461 985.693 381.518 984.715C384.876 984.307 401.423 982.123 402.946 988.21C403.51 990.463 405.402 992.879 405.835 995.79C406.367 999.372 406.007 1003.28 406.007 1006.92C406.007 1022.2 394.867 1042.21 405.576 1055.6C412.696 1064.5 421.963 1063.13 431.618 1063.13" stroke="white" stroke-width="8" stroke-linecap="round"/>
<path d="M507.63 908.5C507.63 938.423 473.886 982.918 474.302 1012.82C474.444 1023.07 476.107 1031.18 480.855 1039.7C487.086 1050.88 496.741 1049.84 507.63 1049.84C520.218 1049.84 533.752 1050.9 545.27 1044.33C555.484 1038.5 554.238 1020.29 554.238 1009.03C554.238 1001.62 555.014 994.295 555.014 986.93C555.014 983.258 556.087 974.938 553.289 972.063C552.266 971.013 548.038 971.867 546.865 971.867C541.069 971.867 535.267 972.034 529.489 971.424C522.761 970.712 515.978 970.981 509.225 970.981" stroke="white" stroke-width="8" stroke-linecap="round"/>
<path d="M502.397 105.603C511.657 103.928 520.858 104.156 530.074 102.699C539.019 101.285 548.5 96.5 557.343 101.421C561.5 103.734 559.175 125.818 559.175 128.837C559.175 146.012 553.804 165.964 547.27 180.883" stroke="white" stroke-width="8" stroke-linecap="round"/>
<path d="M286.276 -23C286.442 -19.7855 288.028 -16.8659 288.108 -13.59C288.197 -9.94546 288.024 -6.67057 288.82 -3.13452C290.738 5.37883 294.983 8.26182 301.844 10.9223C315.371 16.1673 331.757 14.6399 346.005 14.6399C354.179 14.6399 362.353 14.6399 370.527 14.6399" stroke="white" stroke-width="8" stroke-linecap="round"/>
<path d="M705.698 -18.8179C705.698 -2.19777 699.189 13.4689 697.507 29.8003C695.245 51.749 686.057 71.4773 668.66 82.6007C663.555 85.8646 658.497 89.0504 653.041 91.4878C648.707 93.4243 645.316 97.0258 640.983 98.8067C635.432 101.088 631.162 104.099 626.128 107.636C622.342 110.295 617.398 111.933 614.121 115.477C608.923 121.1 606.081 124.822 603.59 132.787C602.604 135.937 597.5 145.5 602.216 151.607C606.932 157.714 624.534 151.607 635.692 151.607C652.476 151.607 669.557 149.666 686.263 150.62C699.074 151.351 712.561 150.346 725.132 153.466C735.388 156.011 743.37 163.209 752.351 168.336C755.772 170.289 759.647 176.608 762.424 179.779C766.443 184.368 771.443 187.668 775.754 191.861C783.57 199.463 795.043 203.856 804.499 207.951C816.441 213.123 828.536 217.234 840.824 221.194C861.647 227.905 883.19 232.115 904.928 232.115C910.984 232.115 917.621 231.189 923.65 232.173C927.58 232.814 931.547 234.597 935.555 235.251" stroke="white" stroke-width="8" stroke-linecap="round"/>
<path d="M958.449 -23C958.449 -11.1889 959.773 1.47625 961.654 13.0715C962.681 19.4026 962.559 26.4939 962.977 32.937C963.263 37.3522 963.588 43.07 962.315 47.2843C961.485 50.0319 959.403 55.515 955.701 57.5075C952 59.5 936 59.5 928.279 57.5075C920.559 55.515 913.689 52.312 906.25 50.1886" stroke="white" stroke-width="8" stroke-linecap="round"/>
<path d="M731.339 11.5032C731.339 4.23055 733.787 -0.454781 737.749 -6.27121C741.244 -11.4007 749.254 -15.812 751.486 -20.9089" stroke="white" stroke-width="8" stroke-linecap="round"/>
<path d="M733.17 256.163C742.433 256.163 815.589 253.14 815.589 259.822C815.589 263.877 814.161 266.99 813.249 270.858C811.994 276.177 811.433 281.457 810.552 286.89C808.566 299.133 809.892 313.282 810.094 325.75C810.298 338.287 813.654 350.834 815.792 363.041C817.627 373.512 816.359 383.271 820.676 393.13C822.733 397.826 834.872 397.682 838.788 398.241C843.653 398.936 849.064 400.152 853.898 398.706C862.49 396.137 870.343 388.361 876.538 381.571C879.793 378.003 889.54 363.467 886.103 357.581" stroke="white" stroke-width="8" stroke-linecap="round"/>
<path d="M735.918 502.913C745.85 502.913 758.902 499.995 767.614 506.049C776.285 512.075 782.622 521.356 782.622 533.234C782.622 548.092 771.368 563.187 764.307 575.056C761.067 580.501 756.957 581.986 752.402 585.453C750.183 587.142 746.902 586.575 745.991 589.693" stroke="white" stroke-width="8" stroke-linecap="round"/>
<path d="M738.665 660.791C746.237 656.468 754.644 651.718 760.593 644.643C767.983 635.853 773.75 625.822 779.875 615.832" stroke="white" stroke-width="8" stroke-linecap="round"/>
<path d="M832.989 662.882C832.989 684.69 819.043 711.07 800.937 719.11C777.251 729.626 753.086 732.934 727.676 732.934" stroke="white" stroke-width="8" stroke-linecap="round"/>
<path d="M702.95 934.726C695.44 934.726 684.526 935.781 677.818 940.07C673.725 942.686 669.581 945.146 665.455 947.737C662.692 949.472 660.913 952.392 658.078 954.01C645.986 960.913 634.922 971.975 621.905 976.548C612.974 979.685 603.132 991.298 603.132 1002.34C603.132 1007.68 603.132 1013.03 603.132 1018.37C603.132 1022.48 603.437 1022.55 606.998 1022.55C629.235 1022.55 651.736 1019.79 674.053 1022.03C685.812 1023.21 697.92 1023.05 709.717 1023.54C717.697 1023.87 725.745 1025.69 733.679 1025.69C738.175 1025.69 740.656 1027.25 743.448 1031.38C752.26 1044.42 762.452 1052.49 775.296 1060.19C788.198 1067.93 801.691 1071.91 815.59 1075.88" stroke="white" stroke-width="8" stroke-linecap="round"/>
<path d="M719.434 81.5552C751.146 81.5552 782.393 85.7374 814.114 85.7374C823.22 85.7374 832.327 85.7374 841.434 85.7374C850.339 85.7374 858.147 87.2386 866.872 88.6417C874.593 89.8832 882.896 91.6023 888.342 97.8193C889.148 98.7404 888.835 100.5 889.257 101.653C890.162 104.121 891.823 106.003 892.717 108.507C894.161 112.554 896.446 118.509 898.924 121.809C902.86 127.052 905.667 133.565 909.404 139.061C914.299 146.259 920.272 152.614 926.092 158.81C928.464 161.336 930.241 164.262 933.011 166.245C941.528 172.343 948.552 176.74 958.499 179.837C969.236 183.18 979.984 184.749 991.009 186.11C998.029 186.977 1004.92 187.156 1011.97 187.156C1016.83 187.156 1021.42 187.889 1026.22 188.782C1027.16 188.958 1030.05 189.344 1028.05 188.201" stroke="white" stroke-width="8" stroke-linecap="round"/>
<path d="M1017.06 256.162C1001.76 256.661 986.986 273.81 978.392 286.948C971.258 297.854 963.5 307.734 958.958 320.464C957.752 323.842 953.842 330.6 958.652 330.397C962.068 330.252 965.104 329.044 968.624 329.409C977.281 330.308 984.376 334.996 992.332 338.529C1002.18 342.899 1013.6 351.308 1024.38 351.308" stroke="white" stroke-width="8" stroke-linecap="round"/>
<path d="M912.661 394.175C912.661 427.615 885.328 452.006 863.616 468.99C858.63 472.891 853.925 477.022 848.761 480.724C845.813 482.837 842.855 485.025 839.959 487.229C838.044 488.687 834.406 489.795 832.989 491.644C830.941 494.316 827.893 496.508 825.459 498.73C820.18 503.553 811.011 515.836 811.011 524.405C811.011 528.2 811.011 531.995 811.011 535.789C811.011 541.805 814.721 540.553 818.846 540.553C831.7 540.553 844.284 537.918 857.104 537.474C872.815 536.93 888.597 537.416 904.317 537.416C915.567 537.416 927.647 540.748 938.709 543.166C949.099 545.438 957.619 552.237 966.793 557.862C978.385 564.97 986.99 573.34 996.911 582.897C1001.26 587.083 1005.4 591.534 1009.73 595.734C1016.05 601.862 1025.08 603.942 1032.63 607.468" stroke="white" stroke-width="8" stroke-linecap="round"/>
<path d="M933.723 487.229C940.983 489.072 948.717 488.331 956.108 488.275C968.755 488.179 981.438 487.264 994.061 486.416C1005.87 485.623 1017.02 484.093 1028.96 484.093" stroke="white" stroke-width="8" stroke-linecap="round"/>
<path d="M969.438 429.724C994.772 431.101 1020.09 430.77 1045.45 430.77" stroke="white" stroke-width="8" stroke-linecap="round"/>
<path d="M815.59 758.027C827.86 758.027 840.898 759.278 852.628 754.891C863.776 750.721 875.401 748.451 886.46 743.97C899.517 738.681 913.836 733.673 922.938 721.433C928.934 713.371 934.204 704.787 938.303 695.294C941.896 686.972 947.414 678.356 953.565 672.234C976.88 649.027 1004.22 647.201 1033.54 643.017" stroke="white" stroke-width="8" stroke-linecap="round"/>
<path d="M1017.97 797.758C1001.52 793.804 980.785 793.624 967.606 807.633C962.526 813.033 958.296 818.953 954.887 825.872C952.141 831.447 950.078 837.52 946.035 842.136C940.819 848.091 928.089 853.359 920.495 850.849C914.613 848.905 910.283 843.718 905.283 840.103C901.698 837.511 896.303 831.099 892.106 830.228C891.225 830.045 886.458 835.658 884.984 836.676C881.37 839.17 876.652 842.309 872.367 842.659C864.4 843.308 856.558 843.762 848.557 843.762C832.559 843.762 821.703 839.382 806.737 832.029C780.253 819.019 809.227 833.167 784.758 821.109C782.85 820.168 777.332 816.694 774.431 816.694C772.137 816.694 770.312 818.523 768.834 820.296C765.43 824.377 761.699 830.233 757.947 833.713C753.884 837.483 749.928 841.557 745.991 845.505C741.061 850.449 732.575 857.301 730.423 864.673" stroke="white" stroke-width="8" stroke-linecap="round"/>
<path d="M1017.97 1043.46C1003.5 1043.46 989.408 1042.73 975.187 1040.33C971.386 1039.68 967.748 1039.52 963.943 1039.28C960.532 1039.07 957.222 1036.05 953.667 1035.33C948.422 1034.27 943.516 1031.6 938.353 1030.86C935.959 1030.52 934.715 1027.77 932.604 1026.97C929.887 1025.93 928.706 1025.96 926.397 1023.6C924.576 1021.74 922.014 1020.73 920.038 1018.89C916.849 1015.93 914.307 1012.08 910.473 1010.06C903.521 1006.4 896.279 995.58 891.598 988.862C887.038 982.317 883.381 967.497 876.233 964.233C872.485 962.521 868.655 960.256 865.041 958.192C859.435 954.992 853.3 954.591 846.725 954.591C840.073 954.591 833.696 951.454 826.986 951.454C818.861 951.454 810.918 950.409 802.769 950.409C784.869 950.409 767.009 948.318 749.044 948.318C744.917 948.318 729.859 949.121 727.676 944.135" stroke="white" stroke-width="8" stroke-linecap="round"/>
</g>
</svg>
