<svg width="85" height="65" viewBox="0 0 85 65" fill="none" xmlns="http://www.w3.org/2000/svg">
<path id="Vector 179" d="M4.35156 3.58301C4.35156 10.1584 16.2682 16.5392 20.8103 19.6935C31.2176 26.9207 40.6871 35.3876 50.9412 42.7706C56.3152 46.6398 62.412 49.2596 67.8354 53.1335C70.0103 54.687 72.7639 56.6289 75.2375 57.6183C77.2512 58.4238 79.1118 60.7969 81.1592 60.7969C85.078 60.7969 73.3217 60.7969 69.4029 60.7969C66.326 60.7969 63.249 60.7969 60.1721 60.7969C59.3503 60.7969 65.6904 60.7969 67.0081 60.7969C68.7338 60.7969 81.013 61.6668 81.1592 59.8389C81.357 57.3661 81.5897 46.1208 79.5917 45.1218" stroke="#FFE7CA" stroke-width="7" stroke-linecap="round"/>
</svg>
