<svg width="75" height="130" viewBox="0 0 75 130" fill="none" xmlns="http://www.w3.org/2000/svg">
<path id="Vector 170" d="M70.8592 4.02547C63.4984 4.5164 55.0462 4.24217 48.0972 6.29088C10.5751 15.3234 3.42859 46.8136 4.54557 61.4297C4.54557 86.1733 28.8634 107.083 41.0224 114.444C44.3169 116.573 47.0762 119.032 50.1102 121.386C52.8569 123.516 53.456 124.45 48.8794 123.186C45.4383 122.236 41.4491 123.587 38.1244 122.764C34.8423 121.951 41.0621 123.696 41.9998 124C45.1332 125.016 48.7136 124.994 51.8219 126.017C55.7917 127.322 54.472 122.904 54.3419 120.954C54.0663 116.821 54.7256 112.683 54.4593 108.691" stroke="#FFE7CA" stroke-width="7" stroke-linecap="round"/>
</svg>
