<svg width="108" height="86" viewBox="0 0 108 86" fill="none" xmlns="http://www.w3.org/2000/svg">
<path id="Vector 178" d="M104.251 4.3667C104.251 10.1631 101.368 16.1329 98.9387 21.2609C96.1106 27.2312 92.5747 31.4039 87.792 36.1522C81.4944 42.4044 74.3428 49.9404 66.3695 54.0478C48.5098 63.2483 28.6139 70.0527 8.80729 73.511C7.68611 73.7067 4.55913 74.723 3.66936 75.5139C2.79869 76.2878 5.85002 74.5524 6.67374 73.7287C8.25474 72.1477 9.3985 70.2202 10.9844 68.6343C11.9286 67.6901 12.7723 65.2863 13.771 64.7156C15.8641 63.5195 11.1055 68.2712 10.3312 69.2004C9.22253 70.5308 7.31533 71.9307 6.45603 73.3368C3.96148 77.4188 6.96811 75.991 9.85229 76.5154C11.7035 76.8519 12.8779 78.5417 14.5983 79.215C16.6511 80.0182 18.5711 80.7459 20.3894 81.9581" stroke="#FFE7CA" stroke-width="7" stroke-linecap="round"/>
</svg>
