<svg width="358" height="307" viewBox="0 0 358 307" fill="none" xmlns="http://www.w3.org/2000/svg">
<path d="M32.5676 126.631C33.9687 124.561 33.964 122.533 33.6904 120.542C33.2182 117.07 32.5486 113.627 32.0217 110.159C30.6132 100.974 29.1279 91.7973 27.8895 82.5834C27.3724 78.7169 27.2889 74.779 27.2593 70.8698C27.2427 68.8796 27.4746 66.7808 28.1272 64.9165C29.1738 61.9248 32.9433 61.132 35.0174 63.4789C37.0599 65.7813 39.0157 68.2728 40.4524 70.9757C45.1758 79.849 48.1243 89.3181 49.7489 99.274C50.6377 104.697 52.355 109.992 53.8479 115.304C54.3456 117.071 54.9884 118.94 57.0189 119.728C59.1145 118.981 58.9706 117.277 58.8403 115.684C58.1826 107.758 57.4261 99.8401 56.8013 91.9095C56.4305 87.2048 56.1146 82.4904 56.0392 77.7766C56.0165 76.2564 56.5399 74.5309 57.3534 73.239C59.0886 70.4774 62.2322 70.4619 63.8561 73.3334C65.7054 76.5986 67.221 80.0905 68.5504 83.6053C73.6414 97.0848 75.9243 111.173 77.4706 125.424C78.1389 131.59 79.2022 137.695 78.0755 143.942C76.9483 150.212 74.669 155.983 70.3518 160.599C66.899 164.297 66.8167 168.313 67.9248 172.598C68.8682 176.246 70.2849 179.768 71.5254 183.335C78.5895 203.718 86.1763 223.961 90.9274 245.041C93.2634 255.408 94.6315 266.014 95.9899 276.57C96.4811 280.376 95.9723 284.392 95.3641 288.231C94.4974 293.687 90.2415 296.036 85.1703 293.747C82.8293 292.695 80.4372 290.826 79.1069 288.684C76.8562 285.07 75.047 281.067 73.7202 277.006C67.9755 259.433 63.6338 241.489 59.7162 223.414C56.4613 208.4 52.4923 193.532 48.6768 178.641C47.32 173.354 44.6624 169.167 38.8703 167.298C33.2354 165.481 29.5568 160.809 26.5531 156.029C23.7808 151.621 21.5108 146.787 19.707 141.894C13.7635 125.737 11.0095 108.806 8.26587 91.8963C8.07091 90.7108 7.96484 89.4673 8.08154 88.2785C8.46716 84.3795 11.6482 82.8344 14.6409 85.3952C16.7235 87.1792 18.5559 89.5748 19.6863 92.0679C21.4026 95.8491 22.4665 99.9368 23.7187 103.92C25.701 110.222 27.5789 116.549 29.5668 122.846C30.0335 124.317 30.3411 126.035 32.5784 126.637L32.5676 126.631ZM89.0536 288.988C89.2069 288.757 89.4251 288.555 89.4858 288.31C89.6134 287.789 89.6486 287.248 89.7327 286.72C91.765 274.323 89.8499 262.174 86.6546 250.293C81.6461 231.683 76.7922 213.005 70.1485 194.868C67.7818 188.415 65.68 181.858 63.6276 175.292C61.3622 168.053 61.3608 161.22 67.5995 155.596C68.7567 154.553 69.5382 153.008 70.2351 151.566C72.9416 145.986 74.1545 140.008 73.6384 133.879C72.8212 124.21 71.8126 114.549 70.4472 104.943C69.1754 95.9802 66.7659 87.2621 63.0068 78.9701C62.4882 77.8313 62.2271 76.4419 60.3892 75.8228C60.2528 77.1477 59.9979 78.1746 60.0606 79.1819C60.4909 85.9106 61.0965 92.6273 61.4447 99.3595C61.7705 105.67 62.7301 111.996 61.4104 118.31C61.0078 120.236 60.4546 122.059 58.2612 122.562C56.0292 123.076 54.1764 122.172 53.0413 120.318C51.9272 118.498 50.9097 116.527 50.3368 114.485C48.407 107.605 46.5048 100.708 44.9378 93.744C42.8777 84.6028 39.6862 75.9039 35.4968 67.5467C34.8507 66.2571 34.0032 64.9297 32.4881 65.6359C31.6366 66.0304 30.8035 67.4531 30.774 68.4309C30.6663 71.9212 30.5788 75.4776 31.09 78.9176C32.3747 87.5806 34.1038 96.1779 35.4269 104.836C36.3827 111.091 37.0694 117.395 37.6359 123.7C37.7864 125.36 37.2984 127.201 36.6637 128.782C35.7668 131.023 33.9745 131.881 31.8676 131.753C29.7063 131.617 28.9542 130.194 28.3972 128.393C26.4884 122.213 24.6403 116.007 22.5275 109.898C20.4606 103.922 18.1403 98.0319 15.8141 92.153C15.2635 90.7565 14.513 89.2676 12.4706 88.7418C12.4446 89.7962 12.2943 90.5741 12.4297 91.2936C13.4309 96.5932 14.5363 101.874 15.5211 107.173C17.7413 119.139 20.7592 130.9 25.0989 142.256C27.6978 149.049 30.4751 155.918 37.2881 159.841C39.1422 160.909 41.1201 161.837 43.1477 162.521C47.49 163.995 50.1053 167.011 51.4001 171.263C53.3975 177.839 55.5105 184.385 57.2328 191.036C59.0548 198.078 60.2935 205.274 62.1154 212.322C65.4545 225.244 69.0632 238.097 72.5014 250.995C74.3081 257.768 75.9443 264.587 77.7676 271.355C79.3249 277.155 82.1983 282.342 85.5424 287.284C86.3812 288.518 87.1724 289.91 89.0596 288.967L89.0536 288.988Z" fill="#4C200D"/>
<path d="M59.9257 155.117C61.8413 150.578 64.1312 146.152 65.5637 141.47C66.9963 136.787 67.5717 131.838 68.5149 127.051C69.8812 128.839 70.1211 128.867 69.9426 130.568C69.5307 134.423 69.2264 138.346 68.2058 142.06C66.8134 147.109 63.7188 151.357 60.8902 155.682L59.9256 155.123L59.9257 155.117Z" fill="#4C200D"/>
<path d="M88.0728 277.971C86.8079 272.507 85.4062 267.044 85.4856 261.372C88.2159 266.599 88.3777 272.245 88.0728 277.971Z" fill="#4C200D"/>
<path d="M176.413 182.331C175.819 184.508 175.357 185.952 175.034 187.422C172.682 198.072 170.3 208.713 168.034 219.382C165.144 233.001 160.364 245.969 154.724 258.643C153.817 260.683 152.635 262.648 151.264 264.405C150.638 265.203 149.086 265.945 148.234 265.708C147.415 265.482 146.641 264.025 146.414 262.984C146.128 261.674 146.367 260.233 146.462 258.855C146.933 251.945 147.671 245.047 147.865 238.131C148.693 209.114 153.471 180.604 158.832 152.179C159.536 148.443 159.269 145.234 157.728 141.682C154.431 134.064 151.212 126.343 148.872 118.398C142.267 95.9464 137.514 73.0496 133.967 49.9168C133.587 47.4247 133.82 44.7336 134.322 42.2424C134.819 39.7764 136.48 37.9118 139.179 37.3952C142.124 36.8345 143.697 38.6725 144.892 40.9087C146.436 43.8026 147.995 46.7076 149.281 49.72C156.593 66.8467 160.711 84.9402 165.247 102.904C165.696 104.684 166.194 106.452 167.543 108.217C167.972 106.796 168.433 105.387 168.819 103.961C172.398 90.763 175.969 77.5662 179.516 64.3636C180.192 61.8587 181.012 59.3553 181.318 56.8028C182.16 49.7719 184.796 43.4299 188.347 37.4274C189.3 35.8171 190.488 34.2301 191.909 33.0459C195.123 30.3803 198.01 31.4217 198.364 35.5792C198.754 40.1952 198.896 44.9246 198.351 49.508C196.735 63.0857 194.392 76.5832 192.958 90.1766C191.376 105.175 188.695 119.963 185.76 134.72C185.229 137.378 185.472 139.74 186.477 142.282C192.205 156.773 197.724 171.347 203.43 185.853C212.43 208.728 217.255 232.645 221.281 256.761C221.82 259.989 221.838 263.311 221.97 266.595C222.056 268.736 221.751 270.903 219.379 271.764C217.007 272.626 215.39 271.23 214.127 269.443C211.228 265.348 208.239 261.306 205.569 257.067C200.459 248.963 197.006 240.108 193.941 231.05C188.616 215.308 183.042 199.649 177.554 183.957C177.443 183.646 177.168 183.396 176.407 182.339L176.413 182.331ZM196.034 36.3057C194.805 36.5665 194.39 36.534 194.166 36.729C193.525 37.2879 192.918 37.8995 192.377 38.5577C188.404 43.3778 186.512 49.1563 185.177 55.09C179.219 81.6024 172.948 108.054 167.626 134.694C163.221 156.763 159.781 179.032 156.313 201.275C153.993 216.157 152.344 231.15 150.485 246.101C150.251 247.955 149.582 249.997 151.177 252.365C152.153 250.327 153.078 248.849 153.59 247.242C156.009 239.667 158.825 232.17 160.572 224.436C166.904 196.396 173.029 168.31 178.895 140.167C182.037 125.087 184.532 109.871 187.241 94.6987C189.586 81.5764 191.95 68.4507 194.043 55.2873C195.012 49.1984 195.35 43.0086 196.03 36.3029L196.034 36.3057ZM184.91 146.352C184.449 146.359 183.985 146.362 183.524 146.369C181.709 155.124 179.829 163.87 178.15 172.656C177.919 173.869 178.466 175.349 178.984 176.57C187.32 196.152 195.538 215.77 202.715 235.826C205.444 243.445 209.33 250.655 212.786 258.003C213.481 259.481 214.125 261.35 217.095 260.889C217.143 259.192 217.533 257.324 217.19 255.6C215.193 245.614 213.593 235.501 210.784 225.739C205.665 207.949 199.898 190.343 194.197 172.725C191.332 163.858 188.022 155.133 184.913 146.348L184.91 146.352ZM160.139 138.819C160.492 138.831 160.85 138.847 161.204 138.859C162.348 133.501 163.417 128.124 164.662 122.789C165.311 120.003 165.153 117.402 164.307 114.655C161.555 105.727 158.972 96.7483 156.373 87.7756C152.906 75.8124 149.54 63.8206 146.005 51.8799C145.276 49.4192 144.139 47.0313 142.889 44.7808C142.324 43.7552 141.021 43.1335 139.321 41.7213C138.609 44.1949 137.737 45.7737 137.787 47.3289C137.904 51.105 138.013 54.9753 138.901 58.6169C143.195 76.2656 147.645 93.883 152.249 111.456C154.654 120.639 157.497 129.705 160.14 138.825L160.139 138.819Z" fill="#4C200D"/>
<path d="M339.304 148.06C338.553 149.262 337.769 150.456 337.049 151.672C332.054 160.095 324.469 165.235 315.207 167.443C307.267 169.337 303.639 174.207 302.131 181.742C297.698 203.867 293.693 226.105 287.32 247.781C284.201 258.384 280.631 268.892 276.602 279.184C274.508 284.541 270.982 289.341 268.077 294.375C267.729 294.98 267.229 295.517 266.732 296.022C263.087 299.725 258.739 298.878 257.256 293.877C256.384 290.93 256.089 287.735 256.058 284.641C255.912 270.75 258.177 257.18 262.582 244.038C268.039 227.759 273.709 211.548 280.593 195.787C283.652 188.784 286.11 181.511 288.691 174.311C290.551 169.131 289.818 164.402 286.233 159.957C283.941 157.114 282.127 153.835 280.467 150.558C275.805 141.361 276.785 131.831 279.261 122.294C282.789 108.69 288.832 96.1941 296.27 84.3559C299.56 79.1172 303.801 74.805 309.548 72.1141C325.734 64.533 341.415 70.9567 347.575 88.093C351.372 98.6613 352.005 109.352 349.539 120.358C348.171 126.457 347.312 132.668 344.613 138.369C343.034 141.694 341.236 144.918 339.537 148.185C339.46 148.144 339.382 148.102 339.299 148.06L339.304 148.06ZM261.653 291.557C264.735 291.926 266.09 290.632 267.087 289.056C268.366 287.028 269.63 284.932 270.507 282.71C277.291 265.541 282.626 247.956 287.008 229.994C291.207 212.77 295.636 195.617 299.107 178.223C299.876 174.367 301.847 171.179 304.714 168.422C307.828 165.429 311.61 163.98 315.664 163.089C321.433 161.82 326.26 159.146 329.736 154.258C331.134 152.293 332.721 150.459 334.006 148.42C343.704 133.009 346.565 116.053 344.851 98.2129C344.136 90.7963 340.598 84.4589 335.683 78.9286C333.848 76.8632 331.541 75.5749 328.754 75.0742C317.881 73.1294 309.157 77.0029 302.407 85.2834C294.252 95.2921 288.503 106.644 284.819 119.042C282.985 125.22 282.109 131.534 282.321 137.948C282.595 146.063 285.83 153.037 291.037 159.194C294.498 163.285 295.406 168.012 294.001 173.166C293.552 174.804 293.044 176.435 292.437 178.022C286.524 193.364 280.384 208.626 274.703 224.06C268.715 240.318 263.789 256.91 261.286 274.11C260.719 278.022 260.473 282.009 260.435 285.964C260.416 287.843 261.231 289.733 261.653 291.551L261.653 291.557Z" fill="#4C200D"/>
<path d="M304.218 162.911C308.346 159.411 312.648 156.222 316.382 152.463C320.258 148.566 323.722 144.221 327.109 139.879C330.356 135.713 331.32 130.18 334.489 125.62C336.899 127.464 336.284 129.364 335.917 131.06C334.914 135.721 332.72 139.867 329.78 143.562C323.6 151.313 315.698 157.077 307.487 162.454C306.792 162.91 305.937 163.127 305.134 163.377C304.957 163.434 304.68 163.161 304.213 162.911L304.218 162.911Z" fill="#4C200D"/>
<path d="M276.836 250.538C277.614 256.421 270.695 276.061 265.844 282.268C265.655 281.41 265.282 280.764 265.445 280.298C268.695 270.925 271.992 261.568 275.326 252.226C275.494 251.761 276.027 251.425 276.841 250.538L276.836 250.538Z" fill="#4C200D"/>
</svg>
