<svg width="156" height="113" viewBox="0 0 156 113" fill="none" xmlns="http://www.w3.org/2000/svg">
<path id="Vector 171" d="M114.048 4.08594C122.968 4.08594 130.803 9.92074 137.722 14.9091C146.617 21.3214 151.572 34.4942 151.664 45.1951C156.196 102.951 94.207 111.471 62.6463 108.512C51.7065 108.512 40.2764 106.536 29.8027 103.147C25.9759 101.909 21.9326 100.626 18.0438 99.6539C15.5046 99.0191 13.3121 97.8187 10.7452 97.1586C8.96884 96.7018 6.81533 94.9946 5.25567 93.9148C2.84822 92.2481 4.00805 95.106 4.00805 97.1586C4.00805 99.2482 4.56948 101.23 4.56948 103.241C4.56948 104.745 4.56948 106.873 4.85019 108.543M4.00805 93.2923C8.15789 92.0618 16 89 19.5 88.5" stroke="#FFE7CA" stroke-width="7" stroke-linecap="round"/>
</svg>
