<svg width="211" height="284" viewBox="0 0 211 284" fill="none" xmlns="http://www.w3.org/2000/svg">
<path d="M25.9464 260.555C25.9666 242.17 25.7053 223.846 24.3498 205.512C23.2588 190.798 23.5056 175.986 23.2108 161.218C23.1773 159.592 23.4868 157.958 23.6423 156.282C22.525 155.15 21.2517 154.101 20.2751 152.823C17.6456 149.391 18.3164 145.048 21.9961 142.747C23.7719 141.635 25.8839 140.646 27.9241 140.442C34.3451 139.8 40.8063 139.532 47.2561 139.158C62.0218 138.312 76.7918 139.023 91.563 139.122C92.787 139.13 94.0096 139.072 95.3475 138.762C94.7726 138.532 94.215 138.243 93.6231 138.088C87.7968 136.544 82.5235 133.945 77.7062 130.298C73.9437 127.451 69.8645 124.985 66.8766 121.255C61.7524 114.866 57.564 107.994 56.5851 99.6234C55.8594 93.4173 55.1474 87.2063 54.528 80.9887C54.3174 78.8653 54.4123 76.7124 54.3645 74.3909C53.532 73.81 52.4579 73.2016 51.5468 72.4045C49.5688 70.6698 49.77 68.7373 52.1039 67.4932C53.0714 66.9773 54.2184 66.6198 55.3107 66.5371C60.0132 66.1853 64.719 65.764 69.4284 65.7412C77.2248 65.7013 85.0224 65.9487 92.8173 66.0664C93.5222 66.0797 94.2306 66.0373 95.2639 66.016C95.6152 61.6883 96.1026 57.4413 96.2514 53.1827C96.3452 50.5338 96.1134 47.8313 95.6702 45.2167C95.3376 43.2441 94.6065 41.2844 93.7394 39.4711C92.7462 37.387 90.9265 36.3629 88.5322 36.2546C77.7765 35.7575 67.0287 35.1906 56.2767 34.647C48.6988 34.2653 41.1205 33.638 33.5352 33.5716C26.0982 33.5068 18.8174 32.4653 11.5455 31.1825C9.4378 30.8087 7.34904 30.226 5.31831 29.5353C4.1793 29.1509 3.06254 28.497 2.14256 27.7186C-0.485143 25.5012 -0.0734835 22.3034 2.99942 20.7011C4.08182 20.1364 5.27052 19.7828 6.66375 19.2303C5.88017 18.0968 5.09432 17.0793 4.43198 15.9804C1.13001 10.5087 2.57445 6.81217 8.70908 5.09122C11.8478 4.21073 14.9616 3.91943 17.8855 5.88966C21.0351 8.01285 22.0882 11.2037 20.7009 14.7461C20.3002 15.7742 19.806 16.7626 19.2476 18.0118C21.7487 18.1318 23.9714 18.2343 26.1942 18.3508C38.7935 19.0047 51.4147 19.3753 63.9801 20.41C73.4668 21.1882 82.9372 22.5277 92.3205 24.1425C100.392 25.5339 105.693 30.8252 109.166 38.0873C112.862 45.8177 113.513 54.0095 112.944 62.3932C112.862 63.6094 112.776 64.8304 112.673 66.3669C113.696 66.4757 114.556 66.6156 115.424 66.6487C126.186 67.0344 136.952 67.3551 147.716 67.8011C150.885 67.9305 154.043 68.4358 157.21 68.7043C159.964 68.9397 162.741 68.9845 165.483 69.3082C167.5 69.5448 169.623 69.77 171.438 70.5855C174.765 72.0746 175.08 74.984 172.214 77.194C170.33 78.6466 170.163 80.4765 169.984 82.5709C169.561 87.4609 169.245 92.3997 168.254 97.1902C167.605 100.328 166.049 103.341 164.551 106.232C162.808 109.592 160.624 112.719 158.735 116.012C156.869 119.259 154.558 122.078 151.626 124.41C149.135 126.385 146.702 128.438 144.264 130.477C140.828 133.361 136.909 135.292 132.619 136.539C130.411 137.178 128.239 137.936 126.166 139.217C127.163 139.256 128.161 139.342 129.158 139.322C140.543 139.088 151.929 138.932 163.311 138.559C171.956 138.274 180.514 138.997 189.102 139.808C193.598 140.234 197.619 141.876 201.809 143.19C207.725 145.047 209.382 154.818 205.797 158.827C204.918 159.81 203.476 160.47 202.172 160.863C196.902 162.445 196.998 162.388 196.993 168.016C196.989 178.172 196.786 188.329 196.749 198.482C196.71 208.741 196.851 219.001 196.766 229.257C196.725 234.279 196.305 239.289 196.144 244.308C196.04 247.588 195.978 250.871 196.101 254.146C196.26 258.268 198.361 261.461 201.233 264.299C205.316 268.331 204.741 274.156 199.93 277.357C198.878 278.06 197.504 278.412 196.229 278.629C183.816 280.725 171.272 280.264 158.766 280.336C144.713 280.417 130.661 280.15 116.607 280.18C101.834 280.215 87.0599 280.672 72.2913 280.475C60.4022 280.317 48.5197 279.583 36.6507 278.822C33.5407 278.622 30.4447 277.526 27.4391 276.545C24.7789 275.677 22.5241 274.009 20.7175 271.821C18.6351 269.296 18.6419 266.695 21.0007 264.407C22.5278 262.929 24.3722 261.774 25.9786 260.545L25.9464 260.555ZM31.9936 259.091C37.6139 259.184 43.0362 259.341 48.46 259.345C56.6606 259.348 64.8778 259.485 73.0663 259.126C88.1325 258.468 103.179 257.296 118.275 258.089C122.475 258.308 126.681 258.407 130.883 258.478C138.78 258.613 146.679 258.603 154.578 258.802C164.832 259.059 175.081 259.465 185.337 259.796C186.413 259.829 187.497 259.761 188.22 259.746C188.396 252.103 188.475 244.934 188.75 237.771C189.342 222.396 190.087 207.023 190.67 191.649C191.013 182.639 191.166 173.62 191.388 164.603C191.401 164.13 191.252 163.651 191.162 163.06C190.592 163.071 190.192 163.042 189.804 163.092C178.575 164.617 167.302 164.445 156.015 164.019C142.487 163.51 128.949 162.722 115.424 162.848C98.3917 163.013 81.368 163.609 64.3544 162.448C55.46 161.843 46.5823 160.923 37.7098 160.025C34.8204 159.732 31.9647 159.054 29.2244 158.573C29.3053 162.502 29.3069 166.183 29.4705 169.851C30.1201 184.292 30.1444 198.759 31.7435 213.161C33.4286 228.364 34.3265 243.611 31.9983 259.095L31.9936 259.091ZM166.25 78.6517C160.488 78.4412 154.773 78.2205 149.058 78.0322C140.244 77.7408 131.429 77.3706 122.609 77.2276C112.458 77.0611 102.303 77.1728 92.1531 77.0341C84.057 76.9272 75.9621 76.6535 67.8676 76.3936C65.2467 76.3085 62.6359 76.0377 59.8505 75.8401C59.8178 76.7308 59.7329 77.3352 59.7822 77.9276C60.2809 84.3655 60.7148 90.8094 61.3477 97.2353C61.6287 100.076 61.8434 103.071 62.9116 105.649C64.9506 110.568 67.4923 115.359 71.5852 118.947C74.8899 121.845 78.3631 124.606 82.0198 127.039C84.8068 128.891 87.8716 130.497 91.0323 131.582C98.773 134.246 106.825 134.91 114.997 134.663C120.733 134.489 126.081 132.844 131.48 131.19C134.875 130.151 137.944 128.595 140.732 126.456C143.58 124.27 146.394 122.042 149.185 119.778C150.138 119.008 151.192 118.221 151.811 117.207C155.847 110.611 161.044 104.732 163.015 96.8947C164.514 90.9302 166.681 85.1421 166.246 78.6472L166.25 78.6517ZM104.44 144.249C104.436 144.059 104.432 143.869 104.428 143.679C101.555 143.738 98.6841 143.89 95.8137 143.842C74.988 143.506 54.1661 143.123 33.3496 144.131C31.3073 144.229 29.2486 144.434 27.2496 144.836C26.2017 145.048 25.1008 145.613 24.309 146.334C22.3067 148.15 22.4132 149.72 24.8342 150.903C27.3909 152.148 30.1002 153.377 32.8723 153.825C40.2537 155.022 47.6815 155.991 55.127 156.695C71.7875 158.271 88.4945 159.175 105.223 158.431C123.716 157.61 142.141 158.835 160.591 159.54C171.679 159.965 182.745 160.011 193.741 158.222C195.562 157.925 197.422 157.771 199.192 157.276C203.391 156.105 204.539 152.414 201.917 148.903C200.205 146.607 197.75 145.563 195.081 145.136C190.829 144.454 186.556 143.606 182.276 143.504C172.643 143.276 163.003 143.381 153.368 143.492C137.059 143.684 120.752 143.992 104.44 144.249ZM24.5181 268.187C26.2252 270.27 28.3317 271.038 30.5095 271.67C35.9847 273.268 41.6295 273.648 47.267 273.676C60.4984 273.732 73.7357 273.631 86.9675 273.484C101.947 273.319 116.929 272.659 131.898 272.888C152.306 273.201 172.706 273.814 193.117 273.144C196.161 273.044 197.648 271.447 197.332 268.454C197.043 265.683 194.59 263.838 191.755 264.16C189.72 264.388 187.671 264.606 185.622 264.616C172.593 264.698 159.562 264.73 146.537 264.762C138.842 264.781 131.149 264.87 123.46 264.746C113.101 264.579 102.749 264.12 92.391 264.018C85.2136 263.948 78.0323 264.369 70.8521 264.387C59.9774 264.416 49.104 264.278 38.2324 264.233C35.9747 264.224 33.7126 264.229 31.4675 264.386C28.7041 264.582 26.3771 265.715 24.518 268.182L24.5181 268.187ZM6.08034 24.8933C7.57476 25.4281 8.6672 26.0268 9.82509 26.2022C16.3026 27.1768 22.776 28.4018 29.2942 28.8749C40.1254 29.6625 50.9987 29.7909 61.8371 30.481C70.4151 31.0276 78.9934 31.8152 87.5255 32.8402C94.9656 33.7347 97.294 35.1471 99.2047 42.1679C100.504 46.9483 100.609 52.0685 101.05 57.0567C101.316 60.0736 101.212 63.1261 101.277 66.2678L107.426 66.1412C107.359 62.8744 107.351 59.815 107.219 56.7582C106.973 51.1217 106.74 45.4292 104.96 40.056C103.097 34.425 99.5085 30.1275 93.2894 29.0919C88.447 28.283 83.5457 27.7673 78.6512 27.3535C68.7461 26.5144 58.8341 25.7913 48.918 25.0961C36.5508 24.2289 24.1952 23.0323 11.7741 23.5986C9.98179 23.6818 8.11514 23.5301 6.07579 24.8979L6.08034 24.8933ZM169.034 75.382C168.87 72.6086 168.633 72.3214 166.498 72.2401C164.35 72.1545 162.2 72.171 160.051 72.0716C150.646 71.6301 141.246 70.9939 131.835 70.7426C122.108 70.4839 112.376 70.5915 102.649 70.5321C101.828 70.5258 101.01 70.4267 100.194 70.4157C85.9539 70.2175 71.7138 70.0192 57.4744 69.858C56.4079 69.8475 55.3338 70.1385 54.266 70.2857C56.012 72.0066 58.0596 72.6182 60.1766 72.7693C67.0198 73.2681 73.8663 73.9246 80.7193 73.9967C87.8829 74.0718 95.0521 73.289 102.215 73.3363C112.559 73.4061 122.896 73.8608 133.236 74.1996C136.715 74.3134 140.185 74.6547 143.664 74.7731C151.24 75.0344 158.818 75.2214 166.392 75.427C167.269 75.4507 168.144 75.3956 169.034 75.3773L169.034 75.382ZM17.0623 12.2853C17.0015 9.78327 14.9628 7.80411 12.526 7.88209C9.94102 7.96312 7.87706 9.93868 7.93903 12.2738C8.01747 15.1834 10.8041 18.3663 13.123 18.1934C15.0578 18.0516 17.1263 14.9448 17.0623 12.2853Z" fill="#4C200D"/>
<path d="M105.168 186.172C111.696 186.668 118.231 187.062 124.748 187.684C131.065 188.291 137.356 189.186 143.665 189.863C149.324 190.469 153.394 193.413 156.204 198.208C156.973 199.518 157.763 200.958 157.978 202.418C159.203 210.797 158.676 218.976 154.616 226.648C153.09 229.535 150.948 231.8 148.127 233.453C142.122 236.97 135.783 239.117 128.724 239.651C116.607 240.573 104.55 240.348 92.5235 238.922C88.9081 238.491 85.3461 237.281 81.8685 236.11C78.0501 234.826 75.5949 231.984 74.2468 228.196C74.0746 227.713 73.8748 227.24 73.7532 226.741C71.5646 217.928 71.555 209.125 73.7514 200.3C75.3656 193.818 79.7247 190.294 85.925 188.608C92.2268 186.898 98.6817 186.779 105.173 186.168L105.168 186.172ZM113.644 232.883C122.44 232.271 130.016 231.883 137.566 231.176C144.247 230.552 149.934 225.303 150.966 218.685C151.642 214.351 151.838 209.915 151.9 205.519C151.955 201.666 149.377 198.483 145.717 197.247C144.364 196.788 142.974 196.371 141.568 196.122C130.845 194.243 120.026 193.386 109.147 193.415C103.714 193.429 98.2827 193.741 92.8598 194.005C89.3448 194.175 85.9794 195.079 82.8271 196.655C81.157 197.491 79.584 198.548 78.9174 200.393C77.7288 203.681 76.8107 207.042 77.2224 210.603C77.6228 214.067 77.963 217.536 78.5067 220.979C78.7942 222.785 79.3456 224.568 79.9743 226.289C80.7603 228.438 82.324 229.866 84.6063 230.393C86.4043 230.811 88.1883 231.451 90.0033 231.571C98.2798 232.11 106.567 232.5 113.644 232.878L113.644 232.883Z" fill="#4C200D"/>
<path d="M182.002 196.634C182.217 209.354 181.644 222.04 179.702 234.638C179.485 236.052 179.236 237.48 178.772 238.82C178.584 239.366 177.677 240.127 177.286 240.028C176.652 239.87 175.98 239.174 175.689 238.541C175.363 237.833 175.424 236.937 175.356 236.123C174.113 221.681 174.548 207.236 175.475 192.8C175.829 187.277 176.23 181.757 176.678 176.24C176.759 175.237 176.978 174.176 177.428 173.29C178.217 171.744 180.132 171.774 180.758 173.379C181.272 174.69 181.534 176.163 181.577 177.576C181.782 183.928 181.871 190.281 182.002 196.634Z" fill="#4C200D"/>
<path d="M44.1011 215.586C44.272 223.885 44.4519 232.179 44.5996 240.479C44.6248 241.702 44.5902 242.95 44.3645 244.146C44.2808 244.583 43.605 245.084 43.1162 245.21C42.798 245.291 42.1069 244.818 41.9601 244.446C41.6276 243.604 41.4417 242.681 41.3582 241.779C40.6221 233.719 39.7009 225.671 39.2611 217.596C38.5601 204.709 38.1692 191.802 37.7043 178.902C37.641 177.174 37.8786 175.431 38.0609 173.702C38.1613 172.727 38.6508 171.734 39.7496 171.966C40.3316 172.089 41.0502 172.996 41.1703 173.648C41.7376 176.663 42.324 179.701 42.5352 182.756C43.2795 193.691 43.8802 204.632 44.5319 215.573C44.3883 215.576 44.2449 215.588 44.1012 215.591L44.1011 215.586Z" fill="#4C200D"/>
<path d="M53.1691 192.198C53.7147 193.258 54.396 194.148 54.6344 195.144C55.1314 197.22 55.6156 199.347 55.7149 201.468C55.9474 206.461 55.953 211.467 56.0328 216.467C56.0432 216.972 55.9518 217.484 55.8694 217.986C55.6542 219.243 55.8108 220.992 54.0353 220.986C52.5471 220.98 52.2356 219.364 52.1652 218.197C51.697 210.766 51.303 203.334 50.983 195.896C50.9289 194.622 51.1318 193.214 53.1691 192.198Z" fill="#4C200D"/>
<path d="M168.011 213.93C166.09 213.845 165.786 212.817 165.598 211.81C164.532 206.168 163.84 200.489 164.278 194.732C164.365 193.567 164.397 191.948 166.029 191.961C167.623 191.975 167.73 193.567 167.796 194.748C168.123 200.257 168.38 205.773 168.587 211.295C168.618 212.142 168.228 213.003 168.015 213.93L168.011 213.93Z" fill="#4C200D"/>
<path d="M125.637 119.41C126.316 118.844 126.923 118.155 127.68 117.736C136.998 112.58 144.247 105.12 150.908 96.9956C151.492 96.2836 151.998 95.4433 152.725 94.9324C153.397 94.4642 154.421 93.9935 155.115 94.1739C156.341 94.4963 156.237 95.7548 155.994 96.7657C155.78 97.6509 155.526 98.6018 155.013 99.3309C153.085 102.082 151.324 105.039 148.981 107.401C144.267 112.147 138.696 115.822 132.742 118.884C131.655 119.444 130.502 119.963 129.321 120.215C128.218 120.451 127.028 120.309 125.879 120.332C125.798 120.028 125.713 119.719 125.633 119.415L125.637 119.41Z" fill="#4C200D"/>
<path d="M110.465 217.613C110.537 220.194 109.064 222.264 107.111 223.097C105.047 223.978 102.564 223.589 101.105 222.085C99.6227 220.553 99.1676 218.713 99.8911 216.705C100.115 216.084 100.635 215.461 101.188 215.083C103.305 213.635 106.741 213.68 108.716 215.304C109.593 216.023 110.136 217.157 110.465 217.613Z" fill="#4C200D"/>
</svg>
