<svg width="282" height="323" viewBox="0 0 282 323" fill="none" xmlns="http://www.w3.org/2000/svg">
<mask id="path-1-inside-1_604_400" fill="white">
<path d="M151.886 304.237C152.093 305.565 152.265 306.758 152.468 307.938C152.903 310.46 153.159 312.981 152.418 315.484C152.131 316.451 151.809 317.434 151.316 318.311C149.791 321.04 146.983 322.036 144.047 320.94C141.21 319.877 139.189 317.827 137.561 315.354C133.883 309.779 131.334 303.725 130.015 297.177C129.442 294.336 128.997 291.464 128.57 288.597C128.114 285.542 127.106 282.694 125.621 280.004C125.26 279.354 124.913 278.802 124.054 278.676C121.989 278.373 120.133 277.431 118.62 276.075C113.925 271.882 108.564 272.065 103.054 273.626C100.205 274.433 97.4991 275.739 94.6919 276.709C91.6154 277.771 88.537 278.889 85.3792 279.655C78.769 281.26 72.9005 279.359 67.6201 275.346C65.2283 273.531 63.324 271.245 61.622 268.783C59.0898 265.119 57.2102 261.124 55.6458 256.966C54.78 254.66 53.8614 252.369 52.9028 250.098C51.4967 246.779 49.205 244.222 46.0341 242.489C43.4238 241.064 40.8134 239.643 38.1655 238.294C35.449 236.913 32.6949 235.609 29.95 234.292C22.1526 230.553 17.7762 224.256 16.1097 215.904C15.4526 212.615 15.1801 209.3 15.4149 205.946C15.5297 204.28 15.6402 202.614 15.6634 200.949C15.7106 196.973 14.5939 193.359 12.0999 190.224C11.3771 189.317 10.6548 188.398 9.84638 187.572C6.21693 183.861 4.86648 179.322 4.96017 174.263C5.11391 165.983 7.95264 158.987 14.0322 153.094C19.7326 147.567 26.6225 144.319 33.7796 141.538C38.3239 139.774 42.3793 137.403 46.0973 134.328C47.3815 133.265 48.6953 132.23 50.0545 131.27C56.4747 126.736 63.0847 127.137 69.7605 130.649C70.9722 131.289 72.0762 132.143 73.2227 132.902C75.3622 134.324 77.6785 135.303 80.2127 135.784C81.8632 136.099 83.3847 135.86 84.8027 134.963C85.1103 134.769 85.4221 134.584 85.7296 134.394C90.4009 131.491 95.0499 131.728 99.4234 135.112C100.341 135.82 101.207 136.595 102.106 137.329C103.544 138.495 105.15 138.966 106.985 138.476C107.615 138.31 108.284 138.26 108.893 138.045C115.308 135.784 125.446 139.286 129.565 146.865C131.736 150.861 132.83 155.133 132.538 159.632C132.115 166.141 131.695 172.676 130.776 179.128C129.366 189.035 127.44 198.866 125.905 208.755C124.376 218.566 123.941 228.41 126.41 238.147C127.227 241.363 128.394 244.513 129.647 247.596C131.286 251.626 133.168 255.555 134.939 259.528C135.084 259.86 135.286 260.194 135.318 260.544C135.531 263.055 137.258 264.175 139.261 265.261C142.702 267.125 145.989 269.268 149.402 271.183C154.586 274.098 159.816 276.923 165.032 279.779C166.496 280.58 168.092 281.189 169.414 282.177C171.199 283.513 172.984 284.953 174.408 286.651C178.842 291.921 178.421 297.854 175.052 303.192C172.647 306.998 168.29 308.778 163.905 307.709C161.527 307.129 159.251 306.121 156.934 305.29C155.383 304.734 153.864 304.036 151.895 304.233L151.886 304.237ZM126.375 270.153C128.14 268.3 129.096 266.393 128.506 263.944C127.47 259.638 126.199 255.429 124.317 251.382C122.581 247.646 120.98 243.8 119.787 239.865C116.306 228.392 116.278 216.709 118.153 204.952C119.683 195.355 121.343 185.772 122.617 176.14C123.405 170.184 123.637 164.149 124.003 158.144C124.166 155.48 123.355 152.98 122.005 150.674C120.66 148.372 118.693 146.873 116.128 146.143C114.133 145.576 112.202 145.426 110.166 146.17C104.923 148.089 100.18 147.043 95.9671 143.433C95.6368 143.151 95.2977 142.874 94.9627 142.6C92.5282 140.636 92.0249 140.562 89.4162 142.215C85.4878 144.699 81.3243 145.168 76.888 143.962C73.769 143.117 70.9077 141.761 68.2594 139.924C67.3653 139.304 66.5128 138.616 65.5769 138.069C61.833 135.889 58.0667 135.474 54.3542 138.144C53.1197 139.03 51.9307 139.987 50.7418 140.94C46.9829 143.939 43.0475 146.623 38.472 148.278C34.7224 149.634 31.0444 151.189 27.2911 152.528C24.0058 153.699 21.3294 155.669 18.7418 157.968C14.3943 161.837 12.2977 166.56 12.1226 172.328C12.0016 176.296 12.8771 179.698 15.8422 182.579C21.5909 188.165 24.0499 195.054 23.5476 203.073C23.3779 205.814 23.4159 208.598 23.6914 211.324C24.4036 218.282 27.742 223.462 34.355 226.274C36.959 227.381 39.5627 228.497 42.1008 229.741C45.2906 231.304 48.4659 232.911 51.5488 234.662C55.9659 237.171 59.2269 240.817 61.3776 245.419C62.2662 247.32 63.0527 249.275 63.8439 251.222C64.6068 253.101 65.2634 255.03 66.0661 256.894C67.426 260.037 69.0658 263.034 71.4063 265.566C74.9236 269.369 79.1569 271.144 84.3348 269.597C86.8994 268.832 89.4375 267.953 91.9231 266.954C96.5713 265.088 101.19 263.2 106.242 262.63C113.702 261.792 120.208 263.541 125.386 269.238C125.625 269.503 125.91 269.727 126.37 270.148L126.375 270.153ZM129.15 276.603C129.504 277.209 129.715 277.657 130.007 278.042C132.274 281.047 133.642 284.444 134.474 288.092C135.072 290.703 135.719 293.303 136.369 295.903C137.517 300.491 139.076 304.924 141.485 309.015C142.143 310.133 142.949 311.168 143.755 312.182C144.014 312.509 144.502 312.648 145.181 313.052C145.105 311.61 145.099 310.528 144.984 309.46C144.788 307.587 144.473 305.727 144.312 303.851C143.98 299.997 145.868 297.508 149.669 297.039C151.438 296.821 153.304 296.838 155.055 297.148C157.031 297.5 158.936 298.278 160.859 298.912C162.027 299.297 163.15 299.842 164.335 300.149C166.681 300.759 167.909 300.069 168.741 297.839C169.896 294.744 169.466 292.558 166.937 290.433C165.568 289.282 163.975 288.341 162.362 287.556C153.872 283.436 145.654 278.871 137.976 273.357C136.814 272.523 135.639 271.702 134.384 270.812C132.834 272.99 131.945 275.589 129.15 276.595L129.15 276.603Z"/>
</mask>
<path d="M151.886 304.237C152.093 305.565 152.265 306.758 152.468 307.938C152.903 310.46 153.159 312.981 152.418 315.484C152.131 316.451 151.809 317.434 151.316 318.311C149.791 321.04 146.983 322.036 144.047 320.94C141.21 319.877 139.189 317.827 137.561 315.354C133.883 309.779 131.334 303.725 130.015 297.177C129.442 294.336 128.997 291.464 128.57 288.597C128.114 285.542 127.106 282.694 125.621 280.004C125.26 279.354 124.913 278.802 124.054 278.676C121.989 278.373 120.133 277.431 118.62 276.075C113.925 271.882 108.564 272.065 103.054 273.626C100.205 274.433 97.4991 275.739 94.6919 276.709C91.6154 277.771 88.537 278.889 85.3792 279.655C78.769 281.26 72.9005 279.359 67.6201 275.346C65.2283 273.531 63.324 271.245 61.622 268.783C59.0898 265.119 57.2102 261.124 55.6458 256.966C54.78 254.66 53.8614 252.369 52.9028 250.098C51.4967 246.779 49.205 244.222 46.0341 242.489C43.4238 241.064 40.8134 239.643 38.1655 238.294C35.449 236.913 32.6949 235.609 29.95 234.292C22.1526 230.553 17.7762 224.256 16.1097 215.904C15.4526 212.615 15.1801 209.3 15.4149 205.946C15.5297 204.28 15.6402 202.614 15.6634 200.949C15.7106 196.973 14.5939 193.359 12.0999 190.224C11.3771 189.317 10.6548 188.398 9.84638 187.572C6.21693 183.861 4.86648 179.322 4.96017 174.263C5.11391 165.983 7.95264 158.987 14.0322 153.094C19.7326 147.567 26.6225 144.319 33.7796 141.538C38.3239 139.774 42.3793 137.403 46.0973 134.328C47.3815 133.265 48.6953 132.23 50.0545 131.27C56.4747 126.736 63.0847 127.137 69.7605 130.649C70.9722 131.289 72.0762 132.143 73.2227 132.902C75.3622 134.324 77.6785 135.303 80.2127 135.784C81.8632 136.099 83.3847 135.86 84.8027 134.963C85.1103 134.769 85.4221 134.584 85.7296 134.394C90.4009 131.491 95.0499 131.728 99.4234 135.112C100.341 135.82 101.207 136.595 102.106 137.329C103.544 138.495 105.15 138.966 106.985 138.476C107.615 138.31 108.284 138.26 108.893 138.045C115.308 135.784 125.446 139.286 129.565 146.865C131.736 150.861 132.83 155.133 132.538 159.632C132.115 166.141 131.695 172.676 130.776 179.128C129.366 189.035 127.44 198.866 125.905 208.755C124.376 218.566 123.941 228.41 126.41 238.147C127.227 241.363 128.394 244.513 129.647 247.596C131.286 251.626 133.168 255.555 134.939 259.528C135.084 259.86 135.286 260.194 135.318 260.544C135.531 263.055 137.258 264.175 139.261 265.261C142.702 267.125 145.989 269.268 149.402 271.183C154.586 274.098 159.816 276.923 165.032 279.779C166.496 280.58 168.092 281.189 169.414 282.177C171.199 283.513 172.984 284.953 174.408 286.651C178.842 291.921 178.421 297.854 175.052 303.192C172.647 306.998 168.29 308.778 163.905 307.709C161.527 307.129 159.251 306.121 156.934 305.29C155.383 304.734 153.864 304.036 151.895 304.233L151.886 304.237ZM126.375 270.153C128.14 268.3 129.096 266.393 128.506 263.944C127.47 259.638 126.199 255.429 124.317 251.382C122.581 247.646 120.98 243.8 119.787 239.865C116.306 228.392 116.278 216.709 118.153 204.952C119.683 195.355 121.343 185.772 122.617 176.14C123.405 170.184 123.637 164.149 124.003 158.144C124.166 155.48 123.355 152.98 122.005 150.674C120.66 148.372 118.693 146.873 116.128 146.143C114.133 145.576 112.202 145.426 110.166 146.17C104.923 148.089 100.18 147.043 95.9671 143.433C95.6368 143.151 95.2977 142.874 94.9627 142.6C92.5282 140.636 92.0249 140.562 89.4162 142.215C85.4878 144.699 81.3243 145.168 76.888 143.962C73.769 143.117 70.9077 141.761 68.2594 139.924C67.3653 139.304 66.5128 138.616 65.5769 138.069C61.833 135.889 58.0667 135.474 54.3542 138.144C53.1197 139.03 51.9307 139.987 50.7418 140.94C46.9829 143.939 43.0475 146.623 38.472 148.278C34.7224 149.634 31.0444 151.189 27.2911 152.528C24.0058 153.699 21.3294 155.669 18.7418 157.968C14.3943 161.837 12.2977 166.56 12.1226 172.328C12.0016 176.296 12.8771 179.698 15.8422 182.579C21.5909 188.165 24.0499 195.054 23.5476 203.073C23.3779 205.814 23.4159 208.598 23.6914 211.324C24.4036 218.282 27.742 223.462 34.355 226.274C36.959 227.381 39.5627 228.497 42.1008 229.741C45.2906 231.304 48.4659 232.911 51.5488 234.662C55.9659 237.171 59.2269 240.817 61.3776 245.419C62.2662 247.32 63.0527 249.275 63.8439 251.222C64.6068 253.101 65.2634 255.03 66.0661 256.894C67.426 260.037 69.0658 263.034 71.4063 265.566C74.9236 269.369 79.1569 271.144 84.3348 269.597C86.8994 268.832 89.4375 267.953 91.9231 266.954C96.5713 265.088 101.19 263.2 106.242 262.63C113.702 261.792 120.208 263.541 125.386 269.238C125.625 269.503 125.91 269.727 126.37 270.148L126.375 270.153ZM129.15 276.603C129.504 277.209 129.715 277.657 130.007 278.042C132.274 281.047 133.642 284.444 134.474 288.092C135.072 290.703 135.719 293.303 136.369 295.903C137.517 300.491 139.076 304.924 141.485 309.015C142.143 310.133 142.949 311.168 143.755 312.182C144.014 312.509 144.502 312.648 145.181 313.052C145.105 311.61 145.099 310.528 144.984 309.46C144.788 307.587 144.473 305.727 144.312 303.851C143.98 299.997 145.868 297.508 149.669 297.039C151.438 296.821 153.304 296.838 155.055 297.148C157.031 297.5 158.936 298.278 160.859 298.912C162.027 299.297 163.15 299.842 164.335 300.149C166.681 300.759 167.909 300.069 168.741 297.839C169.896 294.744 169.466 292.558 166.937 290.433C165.568 289.282 163.975 288.341 162.362 287.556C153.872 283.436 145.654 278.871 137.976 273.357C136.814 272.523 135.639 271.702 134.384 270.812C132.834 272.99 131.945 275.589 129.15 276.595L129.15 276.603Z" fill="#4C200D" stroke="#FFD6A7" stroke-width="2.4" mask="url(#path-1-inside-1_604_400)"/>
<path d="M43.8568 202.51C43.5078 202.598 43.3007 202.752 43.1552 202.918C42.916 203.191 42.7821 203.556 42.6062 204.053L42.606 204.054C41.6564 206.731 41.7131 209.505 42.0701 212.372L42.0702 212.372C42.5618 216.332 44.3248 219.488 47.6787 221.639L47.6795 221.64C49.1786 222.605 50.7423 223.486 52.3528 224.204L52.3531 224.204C54.6422 225.226 57.0054 226.11 59.3849 226.973L59.3852 226.973C62.8958 228.249 65.2995 230.632 66.6461 234.088L66.6464 234.089C66.8238 234.547 66.9868 234.997 67.147 235.439C67.5278 236.492 67.8928 237.5 68.3989 238.457C69.7757 241.058 71.2391 243.62 72.8123 246.102L72.8125 246.102C73.4629 247.13 74.4911 247.784 75.7773 247.832L75.7782 247.832C76.6092 247.865 77.0945 247.587 77.3045 247.275C77.5047 246.977 77.5726 246.471 77.1751 245.763L77.6982 245.469L77.175 245.763C76.0977 243.844 75.6641 241.779 75.2471 239.792C75.2059 239.596 75.1649 239.401 75.1235 239.206L43.8568 202.51ZM43.8568 202.51C43.8655 202.553 43.8741 202.595 43.8826 202.637C43.9965 203.201 44.1 203.713 44.2168 204.219L43.8568 202.51ZM50.6168 216.443C48.1939 215.412 46.5376 213.528 45.8202 211.002L45.82 211.002C45.3625 209.384 44.9977 207.731 44.6373 206.098C44.4982 205.468 44.3597 204.841 44.2169 204.22L50.6168 216.443ZM50.6168 216.443C52.6572 217.313 54.7346 218.098 56.7967 218.878C57.2373 219.044 57.6771 219.21 58.1158 219.377L58.116 219.377C58.7838 219.631 59.481 219.83 60.1469 220.019C60.3169 220.068 60.4848 220.116 60.6497 220.164C67.0062 222.024 71.1949 226.133 73.3259 232.353L73.3259 232.353C74.0855 234.568 74.6258 236.878 75.1234 239.206L50.6168 216.443Z" fill="#4C200D" stroke="#FFD6A7" stroke-width="1.2"/>
<path d="M89.0856 179.934C88.5909 175.064 87.7321 170.21 85.3132 165.81L89.0856 179.934ZM89.0856 179.934C89.0656 180.126 89.0521 180.313 89.0403 180.476C89.0346 180.556 89.0292 180.63 89.0237 180.696C89.0048 180.924 88.9823 181.093 88.9411 181.241M89.0856 179.934L88.9411 181.241M88.9411 181.241C88.7846 181.79 88.4594 182.055 88.1683 182.129C87.8855 182.201 87.5018 182.125 87.138 181.708L87.1371 181.707C86.7536 181.27 86.4876 180.66 86.2246 179.99L86.2243 179.99C85.8579 179.06 85.5061 178.107 85.1517 177.146C84.4987 175.377 83.8368 173.583 83.0583 171.871L83.0581 171.871C82.2334 170.062 81.2622 168.021 79.7796 166.566L79.7789 166.566C78.0794 164.903 76.5444 164 74.967 163.793C73.3865 163.586 71.8813 164.094 70.2829 164.992C68.5226 165.978 66.7441 166.931 64.9234 167.759L64.9234 167.759C62.0479 169.067 59.0815 169.964 55.9538 169.96C52.3438 169.954 49.4948 167.212 49.2748 163.624L49.2747 163.623C49.2037 162.497 49.3893 161.607 50.1558 160.968L50.156 160.967C50.6149 160.584 50.9197 160.568 51.0731 160.616C51.228 160.665 51.4694 160.853 51.6315 161.422C51.6537 161.502 51.6645 161.594 51.6799 161.748C51.6805 161.754 51.681 161.759 51.6815 161.764C51.695 161.898 51.7139 162.088 51.7671 162.276C52.0023 163.126 52.3615 163.862 52.9965 164.292C53.6545 164.739 54.4631 164.764 55.3679 164.526C58.1815 163.789 60.948 162.875 63.6727 161.899L63.6728 161.898C64.8017 161.493 65.8769 160.899 66.8975 160.335C67.1492 160.196 67.3976 160.058 67.6426 159.926L67.6429 159.926C70.536 158.363 73.2441 157.978 75.7851 158.515C78.3378 159.054 80.7815 160.537 83.1078 162.816L83.109 162.817C83.9734 163.659 84.708 164.714 85.3128 165.809L88.9411 181.241Z" fill="#4C200D" stroke="#FFD6A7" stroke-width="1.2"/>
<path d="M96.1971 237.126L96.1957 237.124C90.5207 231.195 87.1069 224.254 86.6725 215.994C86.4461 211.689 88.0555 207.948 90.4432 204.377C90.5742 204.183 90.7374 203.997 90.9213 203.826C91.5037 203.288 92.0457 203.201 92.4195 203.315C92.7894 203.429 93.178 203.797 93.3382 204.565C93.4194 204.957 93.4053 205.368 93.3884 205.858C93.385 205.955 93.3816 206.056 93.3787 206.159L93.3786 206.163C93.3609 207.02 93.3284 207.872 93.2957 208.73C93.2816 209.1 93.2675 209.471 93.2544 209.845C92.8857 217.9 94.148 225.663 98.5751 232.677C99.3599 233.922 100.269 235.094 101.222 236.19C101.756 236.804 101.879 237.362 101.788 237.752C101.702 238.119 101.382 238.514 100.619 238.728C99.9688 238.91 99.1159 238.87 98.4803 238.631C97.6447 238.315 96.8096 237.77 96.1971 237.126Z" fill="#4C200D" stroke="#FFD6A7" stroke-width="1.2"/>
<path d="M228.894 221.773C226.357 218.993 224.09 216.508 221.623 213.801L221.301 213.447L221.574 213.054C222.017 212.417 222.471 211.775 222.93 211.126C224.022 209.58 225.142 207.996 226.195 206.36C226.314 206.175 226.462 205.963 226.603 205.761C226.7 205.623 226.793 205.489 226.871 205.373C227.087 205.051 227.261 204.755 227.369 204.468C227.474 204.187 227.509 203.934 227.466 203.688C227.424 203.443 227.294 203.152 226.982 202.81L226.982 202.809C226.814 202.624 226.658 202.547 226.517 202.523C226.372 202.498 226.177 202.518 225.915 202.642C225.368 202.903 224.663 203.559 223.839 204.734C222.643 206.441 221.535 208.198 220.398 210.003C219.87 210.84 219.336 211.687 218.784 212.545L218.607 212.818L218.282 212.82L212.696 212.844L212.153 212.847L212.097 212.307C212.052 211.88 212.016 211.485 211.982 211.113C211.914 210.365 211.854 209.704 211.744 209.039L211.743 209.036C211.732 208.968 211.721 208.899 211.71 208.831C211.551 207.838 211.402 206.908 211.071 206.06L211.071 206.06C210.779 205.311 210.382 204.768 209.9 204.448C209.432 204.138 208.825 203.998 208.015 204.161C207.297 204.306 206.831 204.656 206.538 205.102C206.236 205.56 206.091 206.162 206.111 206.832L206.111 206.832C206.15 208.167 206.367 209.478 206.606 210.92C206.713 211.565 206.824 212.235 206.926 212.946L206.985 213.358L206.619 213.557L206.578 213.58C205.376 214.235 204.116 214.922 202.747 215.168C201.319 215.424 199.812 215.196 198.123 214.117C195.197 212.247 191.607 211.795 188.067 212.304C186.369 212.551 184.568 213.219 183.223 214.206L183.222 214.207C182.173 214.975 181.858 215.895 182.001 216.666C182.148 217.453 182.801 218.261 184.05 218.716L184.051 218.716C184.605 218.919 185.196 219.052 185.827 219.171C186.047 219.212 186.279 219.253 186.515 219.294C186.932 219.367 187.364 219.443 187.78 219.531L188.728 219.733L188.125 220.492C187.464 221.323 186.734 222.137 186.026 222.928C185.597 223.407 185.176 223.877 184.783 224.336C183.714 225.585 182.793 226.819 182.215 228.173C181.62 229.566 181.342 231.117 181.15 232.799C181.079 233.419 181.02 234.067 180.958 234.73C180.857 235.827 180.753 236.964 180.588 238.078L180.552 238.323L180.353 238.471C178.125 240.133 176.456 243.303 175.734 246.846C175.044 250.23 175.243 253.834 176.537 256.61C176.783 256.562 176.974 256.486 177.126 256.394C177.348 256.261 177.52 256.077 177.663 255.838C177.934 255.384 178.07 254.806 178.234 254.105C178.255 254.012 178.278 253.917 178.301 253.82L178.301 253.819C179.005 250.875 179.758 247.912 180.921 244.854L181.628 242.991L182.067 244.935C183.563 251.566 188.085 255.025 194.382 257.214L195.187 257.494L194.652 258.158C191.001 262.686 190.86 267.834 190.705 273.472C190.694 273.885 190.683 274.301 190.67 274.719L190.647 275.481L189.911 275.279C185.938 274.183 183.279 272.078 181.031 269.472C174.29 261.668 170.108 252.724 169.914 242.222L169.914 242.222C169.658 227.981 171.928 214.297 181.265 202.688C182.874 200.687 184.935 199.018 186.94 197.502C188.35 196.434 189.912 195.535 191.434 194.659C192.005 194.331 192.57 194.006 193.119 193.676L193.119 193.676C204.542 186.83 216.454 187.743 228.419 191.347C228.419 191.347 228.419 191.347 228.419 191.347L228.246 191.922C228.754 192.074 229.268 192.27 229.719 192.548L228.894 221.773ZM228.894 221.773L228.896 222.284L229.606 222.148C232.073 221.673 235.108 221.741 238.081 222.267C241.054 222.792 243.915 223.766 246.044 225.065L228.894 221.773ZM214.749 180.281C216.049 180.179 217.351 180.076 218.657 179.964L218.917 179.946C228.134 179.304 235.884 182.416 242.659 188.585C244.847 190.579 247.144 192.488 249.428 194.387C250.956 195.657 252.477 196.922 253.957 198.204L254.35 197.751L253.957 198.204C258.767 202.372 261.985 207.069 263.574 212.208C265.162 217.345 265.135 222.964 263.391 228.996L263.967 229.163L263.391 228.996C256.796 251.805 243.237 269.419 222.205 280.751C212.175 286.152 201.391 286.798 190.331 283.727C180.258 280.926 174.213 273.962 170.41 264.614L170.41 264.614C168.609 260.192 167.037 255.651 165.658 251.072C164.726 247.978 164.073 244.797 163.415 241.593C163.296 241.019 163.178 240.443 163.058 239.867L163.058 239.867C161.326 231.562 163.254 223.731 166.601 216.076L166.601 216.075C170.183 207.877 175.1 200.507 181.092 193.846L181.092 193.846C187.713 186.485 195.97 182.26 205.781 181.103L205.781 181.103C208.762 180.751 211.749 180.516 214.749 180.281ZM246.044 225.065C247.4 225.893 248.025 226.462 248.281 227.098C248.499 227.638 248.492 228.33 248.205 229.486C242.742 227.433 237.048 226.216 230.86 227.114L230.245 227.203L230.356 227.815C231.558 234.422 229.569 239.989 225.794 245.2L225.794 245.2C225.416 245.722 225.243 246.39 225.172 247.022C225.1 247.664 225.126 248.33 225.195 248.902C225.436 250.928 225.733 252.947 226.028 254.956L226.071 255.25C226.381 257.36 226.686 259.459 226.924 261.563C227.017 262.393 227.072 263.16 226.866 263.864C226.701 264.429 226.356 264.993 225.62 265.503C224.232 263.518 223.728 261.26 223.385 258.886C223.314 258.393 223.25 257.892 223.185 257.387C222.921 255.329 222.648 253.204 221.865 251.285L221.617 250.678L221.034 250.979C219.868 251.581 218.713 252.231 217.578 252.87C216.871 253.268 216.172 253.662 215.483 254.037C213.665 255.026 211.864 255.915 209.989 256.532C208.055 257.167 206.024 257.544 203.891 257.857C203.092 257.974 202.272 258.083 201.438 258.194C200.069 258.376 198.662 258.563 197.251 258.799L196.839 258.868L196.761 259.278C196.147 262.483 195.504 265.847 194.841 269.315C194.436 271.431 194.024 273.586 193.607 275.768L193.503 276.31L194.036 276.458C197.929 277.54 201.403 277.914 204.974 277.522C211.574 276.801 217.619 274.572 223.137 270.901C238.125 260.934 247.366 246.689 253.477 230.222L246.044 225.065ZM211.235 220.051L211.235 220.051C207.141 220.758 203.123 221.961 199.198 223.216L199.197 223.216C196.697 224.017 194.777 224.635 193.319 225.287C191.852 225.944 190.787 226.663 190.04 227.701C189.296 228.735 188.915 230.019 188.677 231.707C188.443 233.37 188.339 235.499 188.205 238.269L188.2 238.377L188.192 238.535L188.214 238.578C188.219 238.644 188.224 238.72 188.231 238.807C188.27 239.346 188.338 240.271 188.391 241.202C188.502 243.201 189.101 244.862 190.17 246.182C191.235 247.499 192.732 248.434 194.569 249.042C195.72 249.425 196.902 249.756 198.103 249.993C204.049 251.18 209.799 249.127 214.326 245.834C218.845 242.547 222.229 237.964 223.423 233.939C224.682 229.7 223.877 225.837 221.585 223.216C219.292 220.593 215.588 219.302 211.235 220.051Z" fill="#4C200D" stroke="#FFD6A7" stroke-width="1.2"/>
<path d="M223.618 136.374L223.856 136.488C224.59 136.842 225.33 137.171 226.062 137.497C227.64 138.2 229.186 138.888 230.584 139.779C232.256 140.841 233.944 141.884 235.633 142.928C242.137 146.948 248.668 150.984 254.431 156.173L254.431 156.173C260.198 161.366 266.645 165.556 274.136 167.877L274.137 167.877C274.362 167.947 274.592 168.029 274.816 168.109C274.947 168.155 275.075 168.201 275.198 168.243C275.545 168.361 275.879 168.46 276.214 168.512C276.819 168.606 277.242 168.51 277.498 168.299C277.746 168.094 277.91 167.721 277.864 167.089L277.864 167.089C277.807 166.282 277.631 165.455 277.387 164.67C276.931 163.223 276.454 161.777 275.976 160.329C275.16 157.855 274.342 155.376 273.624 152.877L273.624 152.876C272.814 150.049 270.928 148.524 268.332 147.303L268.331 147.303C257.634 142.266 246.972 137.156 236.312 132.048C235.315 131.57 234.318 131.092 233.321 130.615L233.32 130.614C232.77 130.348 232.243 130.036 231.731 129.731C231.697 129.711 231.663 129.69 231.629 129.67C231.079 129.344 230.544 129.031 229.985 128.777L229.984 128.777C228.606 128.148 227.432 127.375 226.644 126.315C225.85 125.245 225.469 123.911 225.627 122.205L225.627 122.205C225.666 121.794 225.603 121.361 225.498 120.901C225.446 120.672 225.384 120.441 225.32 120.206L225.317 120.194C225.255 119.964 225.192 119.728 225.138 119.494L225.138 119.493C222.431 107.594 215.397 98.9356 205.017 92.8267C193.548 86.0766 180.918 82.2796 167.928 80.4474C155.179 78.6489 142.209 77.9949 129.302 77.6822C118.781 77.4317 108.326 76.8101 97.889 75.5922L97.9237 75.2942L97.8889 75.5922C93.6969 75.1027 89.7518 73.8469 86.0012 71.9195C82.4326 70.0852 78.8232 68.3226 75.2132 66.5597L74.6151 66.2676C74.6148 66.2675 74.6146 66.2673 74.6143 66.2672C73.7585 65.8543 72.9025 65.4541 72.0274 65.2943C70.9215 65.0922 69.9624 65.3595 69.2827 65.9351C68.6028 66.511 68.1766 67.4175 68.1804 68.5436C68.1881 69.3478 68.3203 70.1964 68.615 70.9231L68.615 70.9233C68.8009 71.3822 68.9861 71.8413 69.1713 72.3001C70.5325 75.6725 71.8899 79.0357 73.4426 82.3051C74.079 83.6409 75.1548 84.9406 76.3488 85.8215L76.3494 85.8219C76.923 86.2473 77.4927 86.6766 78.0616 87.1053C81.4661 89.6708 84.8428 92.2153 88.8507 93.7617L88.8513 93.7619C89.2712 93.9248 89.6529 94.1621 90.0097 94.4118C90.1826 94.5329 90.3528 94.6591 90.5188 94.7823L90.5349 94.7942C90.7072 94.9221 90.8753 95.0465 91.0447 95.1642M223.618 136.374L90.8735 95.4106M223.618 136.374L223.474 136.595M223.618 136.374L223.474 136.595M91.0447 95.1642L90.8735 95.4106M91.0447 95.1642C91.0446 95.1642 91.0446 95.1642 91.0445 95.1641L90.8735 95.4106M91.0447 95.1642C92.3652 96.0808 93.6787 97.0029 94.9915 97.9245C96.7111 99.1317 98.4296 100.338 100.162 101.53L99.9914 101.778C98.2595 100.585 96.5375 99.3764 94.8157 98.1676C93.503 97.2461 92.1903 96.3246 90.8735 95.4106M223.474 136.595C217.571 145.653 208.818 148.368 199.201 149.405C193.275 150.042 187.45 148.966 181.714 147.394C168.346 143.732 155.962 137.885 144.298 130.414L144.298 130.414M223.474 136.595L144.298 130.414M144.298 130.414C139.909 127.604 135.46 124.882 131.013 122.162M144.298 130.414L131.013 122.162M131.013 122.162C128.949 120.899 126.886 119.637 124.829 118.366L131.013 122.162ZM122.175 116.64C122.175 116.64 122.175 116.64 122.175 116.64L122.005 116.888L122.175 116.64ZM220.771 123.375L221.02 123.344C220.954 122.815 220.908 122.392 220.869 122.038C220.801 121.412 220.757 121.002 220.668 120.605L220.668 120.604C218.357 110.445 212.609 102.872 203.585 97.6747L203.585 97.6747C192.207 91.1267 179.693 87.8827 166.961 86.2493C154.464 84.644 141.793 84.2098 129.195 83.9235L129.188 84.2234L129.195 83.9235C118.904 83.692 108.681 83.0787 98.4868 81.7741L98.4487 82.0717L98.4867 81.7741C91.808 80.9215 85.5361 78.9283 79.7221 75.5272L79.5706 75.7861L79.722 75.5271C79.0575 75.1386 78.3643 74.7874 77.5982 74.3994C77.2537 74.2249 76.8944 74.0429 76.5164 73.8467L75.9563 73.556L76.0845 74.1739C77.0085 78.6286 79.3763 81.5736 83.7213 84.1742C84.9667 84.9219 86.2093 85.6872 87.4537 86.4536C89.1012 87.4681 90.7519 88.4846 92.4162 89.4652C94.3304 90.5944 96.2367 91.7447 98.1445 92.8958C102.952 95.7968 107.769 98.7034 112.746 101.294L112.746 101.294C125.375 107.857 137.33 115.402 148.494 124.217C149.663 125.143 150.895 125.998 152.123 126.826L152.124 126.827C158.575 131.147 165.293 134.975 172.374 138.205C179.029 141.24 185.949 143.24 193.196 144.04L193.196 144.04C199.143 144.692 204.943 143.728 210.51 141.664L210.51 141.664C213.834 140.426 216.805 138.53 218.803 134.862L218.976 134.545L218.632 134.433C218.481 134.384 218.33 134.335 218.18 134.287C212.986 132.602 207.981 130.978 202.544 131.507L202.573 131.806L202.544 131.507C201.852 131.575 201.306 131.584 200.878 131.526C200.452 131.468 200.165 131.347 199.968 131.172C199.574 130.822 199.415 130.144 199.512 128.811C199.561 128.158 199.594 127.634 199.57 127.209C199.545 126.778 199.46 126.418 199.249 126.107C199.04 125.798 198.729 125.571 198.32 125.362C197.912 125.154 197.378 124.949 196.698 124.7L196.697 124.699C196.101 124.483 195.588 124.281 195.238 123.975C194.915 123.692 194.719 123.311 194.796 122.674L194.796 122.673C194.86 122.13 195.121 121.816 195.484 121.603C195.868 121.377 196.367 121.264 196.9 121.164L196.901 121.163C198.086 120.932 199.273 120.729 200.485 120.523C201.024 120.431 201.569 120.338 202.121 120.241L202.451 120.183L202.357 119.862C202.3 119.667 202.254 119.498 202.213 119.35C202.121 119.019 202.057 118.786 201.967 118.577C201.728 118.012 201.594 117.438 201.641 116.951C201.687 116.482 201.898 116.091 202.381 115.837C203.19 115.414 204.462 115.364 205.396 115.638L205.397 115.638C206.003 115.814 206.58 116.12 207.168 116.473C207.351 116.582 207.536 116.698 207.724 116.814C208.131 117.067 208.549 117.327 208.973 117.55C211.216 118.737 213.467 119.915 215.883 121.18C217.332 121.939 218.841 122.728 220.443 123.57L220.448 123.607L220.629 123.666L220.646 123.671L220.771 123.375ZM203.879 127.604C209.09 127.916 214.078 128.633 218.444 131.518L218.445 131.519C218.561 131.595 218.685 131.645 218.789 131.683C218.822 131.695 218.852 131.706 218.88 131.716C218.95 131.741 219.009 131.762 219.07 131.789L219.073 131.79C220.682 132.49 222.293 133.18 223.904 133.87C227.642 135.47 231.375 137.068 235.054 138.782L235.054 138.782C243.018 142.492 250.761 146.554 257.692 152.023L257.692 152.023C259.622 153.545 261.671 154.934 263.715 156.319C264.645 156.949 265.573 157.579 266.49 158.22L266.896 158.504L266.959 158.012C267.044 157.355 267.127 156.711 267.209 156.068C267.412 154.493 267.613 152.932 267.827 151.234L267.856 151.006L267.643 150.919C267.387 150.815 267.099 150.701 266.79 150.579C266.169 150.334 265.464 150.056 264.762 149.751L264.761 149.751C263.81 149.34 262.857 148.943 261.907 148.547C259.633 147.6 257.373 146.658 255.186 145.554L255.185 145.554C242.994 139.405 230.824 133.213 218.725 127.057C214.626 124.971 210.535 122.89 206.454 120.815L206.3 120.737L206.155 120.831L206.104 120.864C204.559 121.866 203.356 122.646 202.032 123.502L201.819 123.64L201.919 123.872C202.361 124.902 202.788 125.89 203.237 126.93L203.45 127.425L203.657 127.904L203.879 127.604Z" fill="#4C200D" stroke="#FFD6A7" stroke-width="0.6"/>
<path d="M130.848 92.227C130.634 92.1984 130.418 92.1756 130.206 92.1533L130.196 92.1522C129.986 92.1301 129.781 92.1085 129.577 92.0817C129.164 92.0274 128.776 91.9537 128.42 91.8224C128.215 91.7456 127.958 91.579 127.751 91.3792C127.649 91.2806 127.566 91.1809 127.509 91.0893C127.451 90.9956 127.431 90.9281 127.428 90.8888C127.426 90.8464 127.44 90.7675 127.491 90.6556C127.541 90.5471 127.615 90.4284 127.706 90.3148C127.797 90.2014 127.899 90.0998 127.998 90.0228C128.1 89.9439 128.184 89.9029 128.24 89.8892C129.672 89.5621 131.133 89.283 132.545 89.3491C132.986 89.3701 133.427 89.391 133.868 89.412C141.137 89.7569 148.403 90.1018 155.645 90.6998L155.645 90.6998C158.324 90.9208 160.992 91.2748 163.665 91.6476C164.077 91.705 164.489 91.7629 164.901 91.8208C167.162 92.1385 169.428 92.4569 171.7 92.7052L171.7 92.7052C178.802 93.4807 185.404 95.8993 191.923 98.7199C193.024 99.199 194.082 99.9307 194.918 100.787L194.918 100.787L194.919 100.788C194.964 100.833 195.006 100.91 195.036 101.045C195.066 101.18 195.079 101.349 195.082 101.553C195.084 101.677 195.083 101.818 195.081 101.967C195.078 102.175 195.075 102.401 195.082 102.628C194.749 102.617 194.446 102.615 194.169 102.613C194.014 102.611 193.867 102.61 193.729 102.608C193.255 102.599 192.869 102.576 192.505 102.494L192.505 102.494C191.324 102.229 190.15 101.932 188.971 101.633C188.815 101.594 188.659 101.554 188.503 101.515C187.169 101.177 185.829 100.844 184.477 100.564L184.476 100.564C184.15 100.497 183.824 100.43 183.498 100.363C179.166 99.4708 174.822 98.5763 170.452 97.8991C162.17 96.6137 153.874 95.4213 145.58 94.2293C143.713 93.961 141.847 93.6927 139.98 93.4233L139.98 93.4233C138.048 93.145 136.11 92.8996 134.173 92.6544C133.064 92.5139 131.955 92.3735 130.848 92.227ZM130.848 92.227L130.808 92.5243M130.848 92.227C130.847 92.227 130.847 92.2269 130.847 92.2269L130.808 92.5243M130.808 92.5243C131.919 92.6714 133.03 92.812 134.14 92.9526C136.075 93.1975 138.008 93.4422 139.937 93.7203L127.128 90.9054C127.154 91.3354 127.813 91.9155 128.315 92.1034C128.892 92.3166 129.53 92.3837 130.163 92.4504C130.379 92.4732 130.595 92.4959 130.808 92.5243Z" fill="#4C200D" stroke="#FFD6A7" stroke-width="0.6"/>
</svg>
